# xmcd
#
# Track frame offsets:
#	150
#	23462
#	45900
#	62215
#	81850
#	103200
#	123475
#	142142
#	160427
#	180217
#	205952
#	227537
#	245800
#	263372
#	279652
#
# Disc length: 3983 seconds
#
# Revision: 0
# Processed by: cddbd v1.4PL0 Copyright (c) Steve Scherf et al.
# Submitted via: dBpowerAMP V4.0
#
DISCID=cc0f8d0f
DTITLE=Black Eyed Peas - Behind The Front
DYEAR=1900
DGENRE=Hip-Hop
TTITLE0=Fallin' Up
TTITLE1=Clap your Hand
TTITLE2=Joinbs and Jam
TTITLE3=The Way U Make Me Feel
TTITLE4=Movement
TTITLE5=Karma
TTITLE6=Be Free
TTITLE7=Say Goodbye
TTITLE8=Duet
TTITLE9=Communication
TTITLE10=What Is It
TTITLE11=Que Dices ?
TTITLE12=No
TTITLE13=Love Don't Wait
TTITLE14=Head Bobs
EXTD=
EXTT0=
EXTT1=
EXTT2=
EXTT3=
EXTT4=
EXTT5=
EXTT6=
EXTT7=
EXTT8=
EXTT9=
EXTT10=
EXTT11=
EXTT12=
EXTT13=
EXTT14=
PLAYORDER=
